<svg xmlns="http://www.w3.org/2000/svg"
     width="476" height="467">
  <path d="M 243.5 399.1 C 234.8 393.9 170.4 356.6 152.3 346.2 L 141.0 339.8 L 143.3 336.8 C 144.5 335.2 146.6 331.7 148.0 329.0 C 150.3 324.4 150.6 324.1 152.7 325.3 C 155.7 326.9 174.9 338.0 199.0 352.0 C 209.7 358.2 224.3 366.7 231.5 370.8 C 238.7 374.9 246.4 379.4 248.8 380.7 L 253.0 383.2 L 257.2 380.7 C 259.6 379.4 276.1 369.8 294.0 359.5 C 311.9 349.2 333.0 337.0 340.9 332.4 L 355.3 324.1 L 357.7 328.8 C 359.0 331.4 361.2 334.9 362.6 336.6 L 365.1 339.8 L 350.3 348.2 C 335.0 357.0 323.1 363.8 290.0 383.0 C 259.8 400.6 253.6 404.0 252.5 403.9 C 251.9 403.8 247.9 401.7 243.5 399.1" fill="white"/>
  <path d="M 249.4 344.5 C 247.5 343.2 187.0 308.2 167.8 297.3 L 160.0 292.9 L 160.0 272.1 L 160.0 251.4 L 156.9 248.4 C 145.5 237.8 151.9 219.0 167.4 217.3 C 176.2 216.3 185.2 223.3 186.7 232.3 C 187.6 238.1 186.2 242.5 181.9 247.3 L 177.9 251.9 L 178.2 267.1 L 178.5 282.2 L 185.0 286.0 C 188.6 288.0 205.3 297.7 222.3 307.5 L 253.0 325.2 L 270.8 315.0 C 280.5 309.4 297.4 299.6 308.2 293.3 L 328.0 281.8 L 328.0 266.8 L 328.0 251.7 L 324.1 247.5 C 315.7 238.4 318.3 224.4 329.2 219.1 C 334.8 216.4 339.2 216.4 344.7 219.1 C 350.5 221.9 353.9 226.6 354.7 232.8 C 355.4 239.2 353.8 243.8 349.5 248.0 L 346.0 251.4 L 346.0 272.1 L 346.0 292.8 L 334.8 299.2 C 328.7 302.6 322.1 306.5 320.1 307.6 C 318.1 308.8 303.5 317.2 287.7 326.3 C 271.9 335.5 257.9 343.6 256.7 344.5 C 254.0 346.4 252.0 346.4 249.4 344.5" fill="white"/>
  <path d="M 113.5 332.6 C 109.8 330.9 105.5 326.4 104.1 322.7 C 101.7 316.5 103.9 306.9 108.4 303.1 C 109.8 301.9 110.0 293.9 110.0 228.6 L 110.0 155.5 L 123.1 148.0 C 130.4 143.9 137.9 139.5 139.9 138.4 C 141.9 137.2 158.1 127.8 176.0 117.5 C 193.9 107.2 218.5 93.0 230.7 85.8 L 253.0 72.9 L 262.7 78.6 C 276.6 86.7 295.8 97.8 300.5 100.5 C 305.6 103.4 361.3 135.6 366.1 138.4 C 368.1 139.5 375.6 143.9 382.9 148.0 L 396.0 155.5 L 396.0 228.6 C 396.0 295.5 396.1 301.9 397.7 303.1 C 400.2 305.2 403.0 312.0 403.0 316.2 C 403.0 322.9 399.1 329.3 392.8 332.6 C 389.6 334.3 382.3 334.4 378.3 332.9 C 372.0 330.5 367.0 323.0 367.0 315.7 C 367.0 310.6 371.2 303.3 375.3 301.1 L 378.0 299.7 L 378.0 233.0 L 378.0 166.4 L 369.2 161.4 C 364.4 158.6 344.3 147.0 324.5 135.5 C 304.7 124.1 282.9 111.5 276.0 107.5 C 269.1 103.5 261.1 98.9 258.2 97.2 L 253.0 94.1 L 247.8 97.2 C 244.9 98.9 235.3 104.4 226.5 109.5 C 217.7 114.6 203.3 122.9 194.5 128.0 C 174.9 139.3 157.6 149.3 140.8 159.0 L 128.0 166.3 L 128.0 232.9 L 128.0 299.5 L 131.4 301.7 C 135.3 304.2 139.0 311.2 139.0 316.1 C 138.9 322.9 133.8 330.6 127.7 332.9 C 123.9 334.4 117.2 334.2 113.5 332.6" fill="white"/>
  <path d="M 126.8 321.8 C 131.7 317.2 127.9 308.0 121.1 308.0 C 117.7 308.0 113.2 311.5 112.9 314.5 C 111.7 323.1 120.4 327.7 126.8 321.8" fill="none" stroke="black" stroke-width="3"/>
  <path d="M 388.4 323.9 C 391.4 322.5 393.9 317.8 393.2 314.4 C 392.1 308.4 383.8 306.1 379.5 310.5 C 375.4 314.5 376.9 321.8 382.4 324.0 C 385.3 325.2 385.5 325.2 388.4 323.9" fill="none" stroke="black" stroke-width="3"/>
  <path d="M 174.8 240.4 C 179.2 235.4 176.6 228.4 169.9 227.4 C 165.1 226.6 160.9 230.0 160.8 234.9 C 160.7 237.6 161.4 239.0 164.0 241.2 C 167.8 244.7 171.2 244.4 174.8 240.4" fill="none" stroke="black" stroke-width="3"/>
  <path d="M 342.8 240.7 C 345.9 237.8 345.8 232.7 342.4 229.3 C 340.3 227.2 339.2 226.9 336.2 227.4 C 327.3 228.8 326.5 240.2 335.0 243.3 C 337.2 244.1 340.2 243.1 342.8 240.7" fill="none" stroke="black" stroke-width="3"/>
  <g transform="translate(187.9, 125) scale(0.3809) translate(0, 600) scale(0.1, -0.1)" fill="white">
    <path d="M2969 4960 c-86 -15 -165 -72 -203 -147 -21 -41 -21 -109 -1 -117 16 -6 25 8 45 71 15 49 71 110 120 131 75 32 255 11 399 -47 56 -22 66 -30 69 -53 4 -35 24 -50 63 -46 62 6 67 75 7 98 -18 6 -55 22 -83 35 -131 60 -312 93 -416 75z"/>
    <path d="M2943 4755 c-55 -28 -95 -68 -121 -121 -27 -58 11 -90 45 -36 26 42 75 92 108 110 46 24 153 19 255 -13 106 -34 156 -59 245 -124 62 -45 69 -54 67 -80 -6 -57 64 -94 101 -53 49 54 -20 149 -72 100 -11 -11 -12 -9 -7 8 13 44 -136 144 -297 201 -52 18 -100 26 -172 30 -93 4 -103 3 -152 -22z"/>
    <path d="M2600 4658 c-51 -13 -110 -57 -144 -106 -24 -33 -31 -56 -34 -105 -5 -84 22 -149 92 -215 93 -88 212 -130 397 -139 168 -8 203 5 134 49 -19 13 -35 26 -35 29 0 4 39 15 86 25 l86 18 -6 35 c-10 61 -74 178 -134 243 -54 58 -126 118 -143 118 -4 0 -12 -13 -17 -29 -14 -41 -43 -54 -71 -34 -19 13 -22 23 -19 61 3 45 2 47 -27 53 -44 10 -125 8 -165 -3z m81 -74 c12 -15 11 -18 -5 -28 -69 -41 -82 -55 -103 -106 -25 -63 -56 -79 -72 -37 -22 58 31 146 104 172 52 18 60 18 76 -1z m101 -110 c78 -40 58 -164 -28 -180 -45 -8 -91 11 -109 47 -49 94 41 182 137 133z"/>
    <path d="M2735 4469 c4 -5 4 -21 1 -34 -7 -29 -49 -43 -71 -25 -23 19 -28 6 -15 -34 27 -82 118 -88 155 -10 19 40 5 78 -36 100 -33 17 -42 18 -34 3z"/>
    <path d="M1278 4384 c-40 -42 -74 -81 -76 -88 -1 -7 7 -21 18 -31 20 -18 21 -18 76 36 42 41 54 60 51 77 -9 48 22 18 68 -67 58 -106 135 -224 152 -229 6 -2 20 9 29 24 17 26 17 28 -9 78 -42 80 -155 258 -169 268 -37 23 -67 8 -140 -68z"/>
    <path d="M526 4441 c-4 -5 -6 -206 -5 -446 l1 -437 35 68 c86 168 219 324 335 392 121 72 300 109 406 84 23 -5 42 -8 42 -5 0 3 -28 36 -62 73 -35 36 -106 114 -158 173 l-95 106 -247 1 c-138 0 -249 -4 -252 -9z"/>
    <path d="M2144 4436 c-104 -33 -184 -129 -184 -220 0 -82 55 -150 136 -171 42 -10 56 -9 125 11 42 12 86 27 98 33 30 16 67 70 81 117 11 36 10 48 -9 98 -11 31 -21 68 -21 81 0 54 -126 82 -226 51z m114 -58 c20 -20 14 -26 -45 -45 -41 -13 -74 -33 -114 -70 -31 -29 -59 -50 -63 -46 -14 14 -5 58 20 90 47 62 168 105 202 71z"/>
    <path d="M1765 4166 c-52 -24 -125 -95 -125 -121 0 -8 -15 -22 -32 -31 -43 -22 -67 -43 -84 -75 -11 -23 -10 -33 11 -85 13 -32 33 -67 45 -76 19 -15 24 -15 65 -1 36 12 51 12 79 3 43 -14 83 5 170 79 46 39 68 51 100 53 36 3 43 8 63 43 13 22 23 43 23 46 0 3 -22 20 -48 37 -36 23 -57 48 -81 92 l-32 60 -52 0 c-33 0 -70 -9 -102 -24z m100 -60 c0 -13 -18 -30 -50 -49 -27 -16 -61 -40 -76 -53 -14 -13 -28 -24 -31 -24 -15 0 -16 34 -2 64 30 63 159 113 159 62z m-215 -186 c0 -20 -43 -45 -59 -36 -18 11 -13 44 11 68 20 20 22 20 35 3 7 -11 13 -26 13 -35z"/>
    <path d="M3130 4163 c-39 -7 -46 -21 -17 -34 30 -14 82 0 82 22 0 15 -24 20 -65 12z"/>
    <path d="M2468 4066 c-32 -36 -58 -68 -58 -71 0 -4 45 -4 99 0 55 4 128 4 163 0 l63 -7 161 -161 c88 -89 172 -178 187 -197 l26 -35 1 215 0 215 -157 0 c-193 0 -241 12 -423 102 -3 2 -31 -26 -62 -61z"/>
    <path d="M1123 4029 c-111 -19 -217 -81 -331 -197 -82 -82 -128 -149 -174 -250 -57 -127 -76 -194 -80 -281 l-3 -84 60 -17 c33 -9 81 -20 107 -24 47 -7 47 -7 74 34 27 41 27 42 8 53 -31 18 -125 110 -139 137 -16 32 -29 120 -17 120 4 0 19 -25 31 -55 25 -61 98 -148 143 -171 17 -9 31 -14 32 -12 31 51 68 105 104 151 l44 58 -24 27 c-38 42 -85 114 -111 173 l-24 54 -7 -59 c-6 -47 -16 -70 -48 -113 -22 -29 -46 -53 -54 -53 -7 0 -16 15 -19 33 -9 44 22 111 79 176 25 28 46 61 46 71 0 34 17 22 25 -17 12 -69 96 -201 161 -256 l30 -26 75 25 c41 13 145 43 232 66 181 48 177 44 177 155 0 80 -21 130 -83 194 -49 51 -94 75 -168 89 -58 11 -73 11 -146 -1z m148 -69 c37 -20 13 -91 -26 -76 -25 9 -40 53 -25 71 15 18 24 19 51 5z m-133 -38 c4 -40 -9 -57 -61 -84 -22 -11 -63 -38 -90 -60 -45 -35 -52 -37 -65 -24 -9 8 -15 34 -16 60 -1 52 5 58 109 111 87 45 119 44 123 -3z m-498 -557 c0 -23 -32 -60 -43 -48 -10 9 -9 38 3 68 9 23 13 25 25 15 8 -7 15 -22 15 -35z"/>
    <path d="M2213 4030 c-15 -6 -23 -18 -23 -32 0 -40 20 -97 44 -124 20 -24 32 -27 97 -31 41 -3 133 0 204 5 l130 10 34 -36 c19 -21 82 -86 140 -146 95 -98 107 -108 129 -100 14 5 30 17 36 26 9 15 -12 41 -144 174 l-155 156 -190 -5 c-104 -3 -197 -8 -206 -12 -13 -5 -17 3 -22 46 -9 74 -25 89 -74 69z"/>
    <path d="M1935 3864 c-33 -35 -30 -114 6 -206 14 -36 108 -98 198 -132 56 -22 70 -32 76 -54 3 -14 34 -85 67 -157 33 -71 69 -153 79 -182 22 -58 39 -69 77 -50 51 24 54 18 -147 412 l-36 70 -120 61 -120 61 -3 84 c-2 59 -7 89 -19 101 -21 24 -30 23 -58 -8z"/>
    <path d="M2505 3779 c-66 -5 -141 -7 -167 -4 -46 5 -46 5 -97 -52 l-51 -57 54 -28 55 -28 93 -185 c51 -102 95 -185 98 -184 3 0 30 29 60 65 30 35 58 64 63 64 4 0 7 -94 7 -210 l0 -209 46 -78 c52 -89 93 -141 176 -230 68 -72 76 -108 32 -142 -50 -39 -128 -16 -214 65 l-51 47 3 -129 3 -129 248 -3 247 -2 1 37 c0 21 0 243 0 493 l-1 455 -91 85 c-51 47 -158 149 -238 228 -81 78 -149 141 -151 141 -3 -1 -59 -6 -125 -10z"/>
    <path d="M1652 3745 c-33 -24 -55 -73 -48 -107 4 -18 1 -30 -7 -32 -6 -2 -86 -26 -177 -54 -91 -28 -217 -65 -280 -82 -63 -18 -123 -40 -133 -49 -22 -21 -196 -274 -268 -389 -49 -80 -51 -84 -34 -103 10 -10 31 -19 46 -19 26 0 38 17 160 223 72 122 133 224 135 225 1 2 77 24 167 48 168 45 306 93 395 138 44 22 55 34 82 90 36 72 38 119 5 124 -11 1 -30 -5 -43 -13z"/>
    <path d="M3006 3574 c-14 -37 -3 -56 82 -129 99 -87 203 -153 255 -162 29 -4 36 -2 42 16 9 29 2 36 -60 65 -73 33 -126 71 -219 155 -43 39 -82 71 -86 71 -4 0 -11 -7 -14 -16z"/>
    <path d="M1966 3432 c-34 -37 -85 -91 -112 -120 l-49 -53 -60 58 c-34 32 -80 80 -104 106 l-43 49 -66 -35 c-37 -19 -96 -47 -131 -61 -48 -19 -83 -44 -137 -96 -39 -39 -77 -70 -83 -70 -30 0 -1 -41 111 -158 248 -257 503 -512 513 -512 6 0 124 119 263 264 l252 265 -34 78 c-81 187 -128 289 -139 300 -7 6 -36 21 -65 32 l-53 20 -63 -67z"/>
    <path d="M1183 3337 c-99 -20 -102 -21 -122 -58 -12 -20 -21 -39 -21 -43 0 -26 146 27 218 78 28 21 52 40 52 42 0 6 -15 4 -127 -19z"/>
    <path d="M524 3128 c3 -13 6 -81 6 -153 l1 -130 29 35 c42 49 132 208 125 220 -3 5 -14 10 -24 10 -10 0 -44 9 -76 20 -72 25 -69 25 -61 -2z"/>
    <path d="M988 3137 c-7 -8 -44 -69 -82 -136 -45 -78 -79 -128 -97 -138 -16 -10 -60 -65 -99 -125 -38 -59 -97 -136 -130 -171 l-60 -65 7 -76 6 -76 256 2 256 3 0 397 0 398 -22 0 c-12 0 -28 -6 -35 -13z"/>
    <path d="M2456 3058 c-14 -20 -12 -29 46 -137 115 -219 218 -350 286 -368 50 -12 58 50 10 75 -66 34 -115 100 -199 263 -101 198 -112 211 -143 167z"/>
    <path d="M648 2873 c-14 -16 -63 -80 -110 -143 -121 -162 -181 -222 -267 -262 -63 -29 -71 -36 -69 -58 2 -20 9 -26 33 -28 83 -8 298 196 444 421 36 55 41 70 31 82 -18 22 -33 19 -62 -12z"/>
  </g>
</svg>
